<?xml version="1.0" standalone="no"?><!DOCTYPE svg PUBLIC "-//W3C//DTD SVG 1.1//EN" "http://www.w3.org/Graphics/SVG/1.1/DTD/svg11.dtd"><svg t="1537327042008" class="icon" style="" viewBox="0 0 1024 1024" version="1.1" xmlns="http://www.w3.org/2000/svg" p-id="2106" xmlns:xlink="http://www.w3.org/1999/xlink" width="200" height="200"><defs><style type="text/css"></style></defs><path d="M460.416 772.608c-0.128-18.56 9.6-35.712 25.728-45.056 16-9.216 35.84-9.216 51.84 0 16 9.344 25.856 26.496 25.728 45.056 0 28.544-23.04 51.584-51.584 51.584-28.672 0.128-51.712-23.04-51.712-51.584zM512 993.92C246.272 993.92 30.08 777.728 30.08 512S246.272 30.08 512 30.08 993.92 246.272 993.92 512 777.728 993.92 512 993.92z m0-894.72C284.416 99.2 99.2 284.416 99.2 512S284.288 924.8 512 924.8c227.584 0 412.8-185.216 412.8-412.8C924.672 284.416 739.584 99.2 512 99.2z m0 586.752c-19.072 0-34.432-15.36-34.432-34.432v-58.112c0-56.32 43.008-99.328 81.024-137.344 27.776-27.776 56.704-56.576 56.704-79.616 0-57.344-46.336-104.064-103.296-104.064-57.856 0-103.296 44.672-103.296 101.76-0.64 18.56-15.872 33.408-34.432 33.408-18.56 0-33.792-14.72-34.432-33.408 0-94.08 77.184-170.496 172.16-170.496s172.032 77.568 172.032 172.928c0 51.584-39.04 90.496-76.8 128.384-29.952 29.952-60.928 60.8-60.928 88.576v58.112c0 9.088-3.584 17.92-10.112 24.448-6.272 6.144-15.104 9.856-24.192 9.856z" p-id="2107" fill="#1890ff"></path></svg>