<?xml version="1.0" standalone="no"?><!DOCTYPE svg PUBLIC "-//W3C//DTD SVG 1.1//EN" "http://www.w3.org/Graphics/SVG/1.1/DTD/svg11.dtd"><svg t="1537326727979" class="icon" style="" viewBox="0 0 1024 1024" version="1.1" xmlns="http://www.w3.org/2000/svg" p-id="5589" xmlns:xlink="http://www.w3.org/1999/xlink" width="200" height="200"><defs><style type="text/css"></style></defs><path d="M42.666667 256a213.333333 213.333333 0 0 1 213.333333-213.333333h512a213.333333 213.333333 0 0 1 213.333333 213.333333v512a213.333333 213.333333 0 0 1-213.333333 213.333333H256a213.333333 213.333333 0 0 1-213.333333-213.333333V256z m213.333333-128a128 128 0 0 0-128 128v512a128 128 0 0 0 128 128h512a128 128 0 0 0 128-128V256a128 128 0 0 0-128-128H256z" fill="#1890ff" p-id="5590"></path><path d="M533.333333 256a42.666667 42.666667 0 0 1 42.666667-42.666667H682.666667a128 128 0 0 1 128 128v106.666667a42.666667 42.666667 0 1 1-85.333334 0V341.333333a42.666667 42.666667 0 0 0-42.666666-42.666666h-106.666667a42.666667 42.666667 0 0 1-42.666667-42.666667zM256 533.333333a42.666667 42.666667 0 0 1 42.666667 42.666667V682.666667a42.666667 42.666667 0 0 0 42.666666 42.666666h106.666667a42.666667 42.666667 0 1 1 0 85.333334H341.333333a128 128 0 0 1-128-128v-106.666667a42.666667 42.666667 0 0 1 42.666667-42.666667z" fill="#1890ff" p-id="5591"></path></svg>