<?xml version="1.0" standalone="no"?><!DOCTYPE svg PUBLIC "-//W3C//DTD SVG 1.1//EN" "http://www.w3.org/Graphics/SVG/1.1/DTD/svg11.dtd"><svg t="1531045788663" class="icon" style="" viewBox="0 0 1024 1024" version="1.1" xmlns="http://www.w3.org/2000/svg" p-id="1482" xmlns:xlink="http://www.w3.org/1999/xlink" width="200" height="200"><defs><style type="text/css"></style></defs><path d="M903.761852 303.135612 610.222712 33.869901c-15.805954-15.805954-36.127894-22.579934-59.272326-22.579934L139.99559 11.289967c-20.32194 0-36.127894 15.805954-36.127894 36.127894l0 931.422271c0 20.32194 15.805954 33.869901 36.127894 33.869901l756.992282 0c20.32194 0 33.869901-15.805954 33.869901-33.869901L931.422271 370.875413C931.422271 346.037486 924.648291 320.635061 903.761852 303.135612zM705.622933 815.70011 330.231533 815.70011c-9.031974 0-18.063947-6.77398-18.063947-15.805954l0-38.385888c0-6.77398 6.77398-15.805954 18.063947-15.805954l372.568908 0c9.031974 0 18.063947 6.77398 18.063947 15.805954l2.822492 38.385888C723.68688 807.232635 716.9129 815.70011 705.622933 815.70011zM705.622933 692.074972 330.231533 692.074972c-9.031974 0-18.063947-6.77398-18.063947-15.805954L312.167585 637.883131c0-6.77398 6.77398-15.805954 18.063947-15.805954l372.568908 0c9.031974 0 18.063947 6.77398 18.063947 15.805954l2.822492 38.385888C723.68688 682.478501 716.9129 692.074972 705.622933 692.074972zM705.622933 567.885336 330.231533 567.885336c-9.031974 0-18.063947-6.77398-18.063947-15.805954L312.167585 513.693495c0-6.77398 6.77398-15.805954 18.063947-15.805954l372.568908 0c9.031974 0 18.063947 6.77398 18.063947 15.805954l2.822492 38.385888C723.68688 558.288864 716.9129 567.885336 705.622933 567.885336zM609.093716 311.038589 609.093716 114.593164l216.767365 194.187431L609.093716 311.038589z" p-id="1483"></path></svg>